<?xml version="1.0" standalone="no"?>
<!DOCTYPE svg PUBLIC "-//W3C//DTD SVG 20010904//EN"
 "http://www.w3.org/TR/2001/REC-SVG-20010904/DTD/svg10.dtd">
<svg version="1.0" xmlns="http://www.w3.org/2000/svg"
 width="980.000000pt" height="980.000000pt" viewBox="0 0 980.000000 980.000000"
 preserveAspectRatio="xMidYMid meet">

<g transform="translate(0.000000,980.000000) scale(0.100000,-0.100000)"
fill="#000000" stroke="none">
<path d="M3600 7120 l0 -149 -152 -3 c-145 -3 -153 -4 -154 -23 -1 -11 -2 -80
-3 -152 l-1 -133 -150 0 -150 0 0 -1990 0 -1990 1990 0 1990 0 0 155 0 155
150 0 149 0 3 148 3 147 153 3 152 3 0 1989 0 1990 -1990 0 -1990 0 0 -150z
m3828 -2222 l-3 -1453 -1837 -3 -1838 -3 0 1456 0 1455 1840 0 1840 0 -2
-1452z m-3820 -225 l2 -1373 1755 0 1755 0 0 -80 0 -80 -1837 0 -1838 0 3
1455 2 1456 78 -3 77 -3 3 -1372z m-308 -308 l0 -1375 1760 0 1761 0 -3 -77
-3 -78 -1835 0 -1835 0 -3 1453 -2 1452 80 0 80 0 0 -1375z"/>
<path d="M4210 5050 l0 -380 155 0 155 0 0 75 0 75 -75 0 -75 0 0 80 0 80 75
0 75 0 0 75 0 75 -75 0 -75 0 0 75 0 75 75 0 75 0 0 75 0 75 -155 0 -155 0 0
-380z"/>
<path d="M4670 5050 l0 -380 80 0 80 0 0 75 0 75 75 0 75 0 0 -75 0 -75 75 0
75 0 0 75 0 75 -75 0 -75 0 0 80 0 80 75 0 75 0 0 225 0 225 -230 0 -230 0 0
-380z m310 155 l0 -75 -75 0 -75 0 0 75 0 75 75 0 75 0 0 -75z"/>
<path d="M5290 5050 l0 -380 75 0 75 0 0 75 0 75 75 0 75 0 0 -75 0 -75 75 0
75 0 0 75 0 75 -75 0 -75 0 0 80 0 80 75 0 75 0 0 225 0 225 -225 0 -225 0 0
-380z m300 155 l0 -75 -75 0 -75 0 0 75 0 75 75 0 75 0 0 -75z"/>
<path d="M6050 5355 l0 -75 -75 0 -75 0 0 -305 0 -305 150 0 150 0 0 75 0 74
78 3 77 3 3 303 2 302 -155 0 -155 0 0 -75z m150 -305 l0 -230 -75 0 -75 0 0
230 0 230 75 0 75 0 0 -230z"/>
<path d="M6510 5050 l0 -380 75 0 75 0 0 75 0 75 75 0 74 0 3 78 3 77 78 3 77
3 0 224 0 225 -230 0 -230 0 0 -380z m310 155 l0 -75 -80 0 -80 0 0 75 0 75
80 0 80 0 0 -75z"/>
<path d="M6820 4745 l0 -75 75 0 75 0 0 75 0 75 -75 0 -75 0 0 -75z"/>
<path d="M4214 4506 c-3 -7 -4 -42 -2 -77 l3 -64 1378 -3 1377 -2 0 80 0 80
-1375 0 c-1145 0 -1377 -2 -1381 -14z"/>
<path d="M4210 4135 l0 -75 1380 0 1380 0 0 75 0 75 -1380 0 -1380 0 0 -75z"/>
</g>
</svg>
